<svg width="48" height="48" viewBox="0 0 48 48" fill="none" xmlns="http://www.w3.org/2000/svg">
    <path d="M23.9978 46.6216C36.4921 46.6216 46.6207 36.493 46.6207 23.9988C46.6207 11.5046 36.4921 1.37598 23.9978 1.37598C11.5036 1.37598 1.375 11.5046 1.375 23.9988C1.375 36.493 11.5036 46.6216 23.9978 46.6216Z" fill="white" stroke="#040610" stroke-linecap="round" stroke-linejoin="round"/>
    <path d="M24.0291 41.1374C33.4945 41.1374 41.1676 33.4642 41.1676 23.9989C41.1676 14.5335 33.4945 6.86035 24.0291 6.86035C14.5638 6.86035 6.89062 14.5335 6.89062 23.9989C6.89062 33.4642 14.5638 41.1374 24.0291 41.1374Z" fill="white" stroke="#040610" stroke-linecap="round" stroke-linejoin="round"/>
    <path d="M28.4761 16.6743C26.5398 15.1337 23.8714 14.426 21.5052 15.1509C19.139 15.8782 17.2494 18.1756 17.3182 20.65C17.387 23.1243 19.6771 25.4143 22.1416 25.1932C23.6724 25.0556 25.0459 24.0777 26.5816 24.0089C28.594 23.9204 30.4639 25.5913 30.8177 27.5766C31.1715 29.562 30.1322 31.6579 28.4613 32.7857C26.7905 33.9136 24.5987 34.1298 22.6576 33.5892C20.7164 33.0487 19.0161 31.8127 17.6843 30.2991" fill="white"/>
    <path d="M28.4761 16.6743C26.5398 15.1337 23.8714 14.426 21.5052 15.1509C19.139 15.8782 17.2494 18.1756 17.3182 20.65C17.387 23.1243 19.6771 25.4143 22.1416 25.1932C23.6724 25.0556 25.0459 24.0777 26.5816 24.0089C28.594 23.9204 30.4639 25.5913 30.8177 27.5766C31.1715 29.562 30.1322 31.6579 28.4613 32.7857C26.7905 33.9136 24.5987 34.1298 22.6576 33.5892C20.7164 33.0487 19.0161 31.8127 17.6843 30.2991" stroke="#040610" stroke-linecap="round" stroke-linejoin="round"/>
    <path d="M21.0977 12.9492C21.965 20.7334 22.8324 28.5201 23.6998 36.3043L21.0977 12.9492Z" fill="white"/>
    <path d="M21.0977 12.9492C21.965 20.7334 22.8324 28.5201 23.6998 36.3043" stroke="#040610" stroke-linecap="round" stroke-linejoin="round"/>
    <path d="M24 12.7969C25.0271 20.6302 26.0542 28.4611 27.0812 36.2944L24 12.7969Z" fill="white"/>
    <path d="M24 12.7969C25.0271 20.6302 26.0542 28.4611 27.0812 36.2944" stroke="#040610" stroke-linecap="round" stroke-linejoin="round"/>
    </svg>
    