<svg width="48" height="47" viewBox="0 0 48 47" fill="none" xmlns="http://www.w3.org/2000/svg">
    <path d="M9.76512 12.6116L6.80054 15.5762L29.3647 38.1404L32.3293 35.1758L9.76512 12.6116Z" fill="white" stroke="black" stroke-linecap="round" stroke-linejoin="round"/>
    <path d="M12.7266 9.64576L9.76196 12.6104L32.3262 35.1745L35.2907 32.21L12.7266 9.64576Z" fill="white" stroke="black" stroke-linecap="round" stroke-linejoin="round"/>
    <path d="M15.6941 6.68288L12.7295 9.64746L35.2937 32.2117L38.2583 29.2471L15.6941 6.68288Z" fill="white" stroke="black" stroke-linecap="round" stroke-linejoin="round"/>
    <path d="M38.2577 29.2467L29.3657 38.1387L32.5938 41.3667L41.4858 32.4748L38.2577 29.2467Z" fill="white" stroke="black" stroke-linecap="round" stroke-linejoin="round"/>
    <path d="M32.594 41.3662L41.486 32.4742L42.6743 33.6626C45.1281 36.1163 45.1281 40.099 42.6743 42.5528C40.2205 45.0065 36.2379 45.0065 33.7841 42.5528L32.5958 41.3644L32.594 41.3662Z" fill="white" stroke="black" stroke-linecap="round" stroke-linejoin="round"/>
    <path d="M0.880859 1L6.79962 15.5751L12.7665 15.6131L11.2457 11.1291L15.7297 12.6474L15.6917 6.68302L0.880859 1Z" fill="white" stroke="black" stroke-linecap="round" stroke-linejoin="round"/>
    <path d="M3.33447 7.04009L7.50422 7.62309L7.01754 3.35449" fill="white"/>
    <path d="M3.33447 7.04009L7.50422 7.62309L7.01754 3.35449" stroke="black" stroke-linecap="round" stroke-linejoin="round"/>
    </svg>
    