<svg width="48" height="48" viewBox="0 0 48 48" fill="none" xmlns="http://www.w3.org/2000/svg">
    <path d="M43.6382 43.637C39.1542 48.121 31.8609 48.121 27.3769 43.637C22.8929 39.153 22.8929 31.8597 27.3769 27.3757C31.8609 22.8917 39.1542 22.8917 43.6382 27.3757C48.1222 31.8597 48.1222 39.153 43.6382 43.637ZM29.5723 29.5711C26.2995 32.8439 26.2995 38.1688 29.5723 41.4416C32.8451 44.7144 38.17 44.7144 41.4404 41.4416C44.7132 38.1688 44.7132 32.8439 41.4404 29.5735C38.1676 26.3007 32.8427 26.3007 29.5699 29.5735L29.5723 29.5711Z" fill="white" stroke="black" stroke-linecap="round" stroke-linejoin="round"/>
    <path d="M23.7529 19.9486C22.3506 18.6634 21.8298 16.6758 21.6698 14.779C21.5121 12.8846 21.6459 10.9567 21.2541 9.09338C20.5279 5.63663 17.8738 2.65049 14.5269 1.52054C11.1801 0.390586 7.00903 1.04515 4.02528 4.02651C1.04393 7.00787 0.389365 11.1789 1.51932 14.5282C2.64927 17.875 5.63541 20.5291 9.09216 21.2553C10.9531 21.6471 12.881 21.5109 14.7778 21.671C16.6722 21.8287 18.6621 22.3518 19.9474 23.7541" fill="white"/>
    <path d="M23.7529 19.9486C22.3506 18.6634 21.8298 16.6758 21.6698 14.779C21.5121 12.8846 21.6459 10.9567 21.2541 9.09338C20.5279 5.63663 17.8738 2.65049 14.5269 1.52054C11.1801 0.390586 7.00903 1.04515 4.02528 4.02651C1.04393 7.00787 0.389365 11.1789 1.51932 14.5282C2.64927 17.875 5.63541 20.5291 9.09216 21.2553C10.9531 21.6471 12.881 21.5109 14.7778 21.671C16.6722 21.8287 18.6621 22.3518 19.9474 23.7541" stroke="black" stroke-linecap="round" stroke-linejoin="round"/>
    <path d="M32.266 11.6947L11.6965 32.2642C10.2066 33.7541 10.2066 36.1697 11.6965 37.6596L11.6981 37.6613C13.188 39.1512 15.6036 39.1512 17.0935 37.6613L37.6631 17.0917C39.1529 15.6018 39.1529 13.1863 37.6631 11.6964L37.6614 11.6947C36.1715 10.2048 33.7559 10.2048 32.266 11.6947Z" fill="white" stroke="black" stroke-linecap="round" stroke-linejoin="round"/>
    </svg>
    