<svg width="54" height="48" viewBox="0 0 54 48" fill="none" xmlns="http://www.w3.org/2000/svg">
    <path d="M42.4701 12.4033H5.57794C3.02197 12.4033 0.949951 14.4753 0.949951 17.0313V36.1735C0.949951 38.7294 3.02197 40.8015 5.57794 40.8015H42.4701C45.0261 40.8015 47.0981 38.7294 47.0981 36.1735V17.0313C47.0981 14.4753 45.0261 12.4033 42.4701 12.4033Z" fill="white" stroke="black" stroke-linecap="round" stroke-linejoin="round"/>
    <path d="M35.3473 40.8011H30.644V12.323C30.644 8.67333 27.6739 5.70324 24.0242 5.70324C20.3745 5.70324 17.4044 8.67333 17.4044 12.323V40.8011H12.7012V12.323C12.7012 6.07949 17.7807 1 24.0242 1C30.2678 1 35.3473 6.07949 35.3473 12.323V40.8011Z" fill="white" stroke="black" stroke-linecap="round" stroke-linejoin="round"/>
    <path d="M39.2157 47.0002C46.8563 47.0002 53.0502 40.8062 53.0502 33.1656C53.0502 25.525 46.8563 19.3311 39.2157 19.3311C31.5751 19.3311 25.3811 25.525 25.3811 33.1656C25.3811 40.8062 31.5751 47.0002 39.2157 47.0002Z" fill="white" stroke="black" stroke-linecap="round" stroke-linejoin="round"/>
    <path d="M39.2157 23.1172V33.1657L45.6897 37.3515" fill="white"/>
    <path d="M39.2157 23.1172V33.1657L45.6897 37.3515" stroke="black" stroke-linecap="round" stroke-linejoin="round"/>
    </svg>
    