<svg width="58" height="48" viewBox="0 0 58 48" fill="none" xmlns="http://www.w3.org/2000/svg">
    <path d="M54.5866 1H3.41059C2.1853 1 1.19189 1.9934 1.19189 3.2187V37.0688C1.19189 38.2941 2.1853 39.2875 3.41059 39.2875H54.5895C55.8147 39.2875 56.8082 38.2941 56.8082 37.0688V3.2187C56.8082 1.9934 55.8147 1 54.5895 1H54.5866Z" fill="white" stroke="#040610" stroke-linecap="round" stroke-linejoin="round"/>
    <path d="M52.1129 5.70605H5.82666V31.8695H52.1129V5.70605Z" fill="white" stroke="#040610" stroke-linecap="round" stroke-linejoin="round"/>
    <path d="M34.7473 42.3255L34.6385 39.2852H23.3046L23.1958 42.3255C23.1242 44.3066 21.9877 46.0958 20.2213 47.0005H37.7218C35.9583 46.0958 34.8189 44.3066 34.7473 42.3255Z" fill="white" stroke="#040610" stroke-linecap="round" stroke-linejoin="round"/>
    <path d="M28.9978 21.0717C32.0873 21.0717 34.5918 18.5672 34.5918 15.4778C34.5918 12.3883 32.0873 9.88379 28.9978 9.88379C25.9083 9.88379 23.4038 12.3883 23.4038 15.4778C23.4038 18.5672 25.9083 21.0717 28.9978 21.0717Z" fill="white" stroke="#040610" stroke-linecap="round" stroke-linejoin="round"/>
    <path d="M18.6259 31.4814C18.6259 25.7529 23.2694 21.1094 28.9979 21.1094C34.7264 21.1094 39.3699 25.7529 39.3699 31.4814" fill="white"/>
    <path d="M18.6259 31.4814C18.6259 25.7529 23.2694 21.1094 28.9979 21.1094C34.7264 21.1094 39.3699 25.7529 39.3699 31.4814" stroke="#040610" stroke-linecap="round" stroke-linejoin="round"/>
    </svg>
    