 <svg
  width="375"
  height="159"
  viewBox="0 0 375 159"
  fill="none"
  xmlns="http://www.w3.org/2000/svg"
>
  <path
    d="M-5 46.5166C50.0833 24.3904 118.322 40.754 157.376 85.4498C171.055 101.103 181.267 119.614 195.646 134.626C210.024 149.639 230.577 161.212 250.969 157.196C282.215 151.043 301.47 111.453 333.298 112.457C353.316 113.093 370.429 130.471 390.416 129.19C411.214 127.854 426.367 106.871 447.037 104.222C475.255 100.607 495.556 131.251 522.609 140.047C550.698 149.18 581.373 132.757 600.852 110.556C620.331 88.3551 632.423 60.6853 650.033 36.9729C698.536 -28.327 791.205 -56.7819 868 -29.9559"
    stroke="black"
    stroke-linecap="round"
    stroke-linejoin="round"
  >
    <animate
      attributeName="stroke-dasharray"
      from="0 3018"
      to="3018 0"
      dur="3s"
      begin="0s"
      fill="freeze"
    />
    <animate
      attributeName="stroke-dashoffset"
      from="1359"
      to="0"
      dur="3s"
      begin="0s"
      fill="freeze"
    />
  </path>
</svg>