<svg
  width="375"
  height="159"
  viewBox="0 0 375 159"
  fill="none"
  xmlns="http://www.w3.org/2000/svg"
>
  <path
    d="M-312 46.5166C-256.917 24.3904 -188.678 40.754 -149.624 85.4498C-135.945 101.103 -125.733 119.614 -111.354 134.626C-96.976 149.639 -76.4233 161.212 -56.0308 157.196C-24.7851 151.043 -5.53024 111.453 26.2977 112.457C46.3163 113.093 63.4293 130.471 83.4159 129.19C104.214 127.854 119.367 106.871 140.037 104.222C168.255 100.607 188.556 131.251 215.609 140.047C243.698 149.18 274.373 132.757 293.852 110.556C313.331 88.3551 325.423 60.6853 343.033 36.9729C391.536 -28.327 484.205 -56.7819 561 -29.9559"
    stroke="black"
    stroke-linecap="round"
    stroke-linejoin="round"
  >
    <animate
      attributeName="stroke-dasharray"
      from="0 3018"
      to="3018 0"
      dur="3s"
      begin="0s"
      fill="freeze"
    />
    <animate
      attributeName="stroke-dashoffset"
      from="1359"
      to="0"
      dur="3s"
      begin="0s"
      fill="freeze"
    />
  </path>
</svg>