<svg
  width="1359"
  height="311"
  viewBox="0 0 1359 311"
  fill="none"
  xmlns="http://www.w3.org/2000/svg"
>
  <path
    d="M1.24414 136.319C86.8333 101.935 192.863 127.364 253.547 196.82C274.801 221.144 290.669 249.909 313.01 273.238C335.352 296.567 367.287 314.551 398.973 308.31C447.523 298.75 477.441 237.228 526.896 238.788C558.001 239.776 584.592 266.781 615.647 264.79C647.964 262.715 671.509 230.107 703.627 225.991C747.471 220.373 779.016 267.993 821.051 281.662C864.696 295.853 912.359 270.333 942.626 235.834C972.893 201.334 991.682 158.336 1019.04 121.488C1094.41 20.0144 1238.4 -24.2035 1357.72 17.4831"
    stroke="black"
    stroke-width="2"
    stroke-linecap="round"
    stroke-linejoin="round"
  >
    <animate
      attributeName="stroke-dasharray"
      from="0 3018"
      to="3018 0"
      dur="3s"
      begin="0s"
      fill="freeze"
    />
    <animate
      attributeName="stroke-dashoffset"
      from="1359"
      to="0"
      dur="3s"
      begin="0s"
      fill="freeze"
    />
  </path>
</svg>