 <svg
  width="375"
  height="154"
  viewBox="0 0 375 154"
  fill="none"
  xmlns="http://www.w3.org/2000/svg"
>
  <path
    d="M-147 41.5166C-91.9167 19.3904 -23.6782 35.754 15.3763 80.4498C29.0549 96.1032 39.2672 114.614 53.6456 129.626C68.024 144.639 88.5767 156.212 108.969 152.196C140.215 146.043 159.47 106.453 191.298 107.457C211.316 108.093 228.429 125.471 248.416 124.19C269.214 122.854 284.367 101.871 305.037 99.2221C333.255 95.6065 353.556 126.251 380.609 135.047C408.698 144.18 439.373 127.757 458.852 105.556C478.331 83.3551 490.423 55.6853 508.033 31.9729C556.536 -33.327 649.205 -61.7819 726 -34.9559"
    stroke="black"
    stroke-linecap="round"
    stroke-linejoin="round"
  >
    <animate
      attributeName="stroke-dasharray"
      from="0 3018"
      to="3018 0"
      dur="3s"
      begin="0s"
      fill="freeze"
    />
    <animate
      attributeName="stroke-dashoffset"
      from="1359"
      to="0"
      dur="3s"
      begin="0s"
      fill="freeze"
    />
  </path>
</svg>