  <svg
  width="1354"
  height="318"
  viewBox="0 0 1354 318"
  fill="none"
  xmlns="http://www.w3.org/2000/svg"
>
  <path
    d="M1.2373 208.659C80.4796 208.659 112.769 299.035 185.677 314.928C243.492 327.53 300.631 287.101 333.266 237.731C365.894 188.361 383.057 130.002 416.162 80.9538C449.276 31.9057 507.776 -8.55668 564.923 6.81672C590.359 13.6622 613.897 31.0727 640.124 28.6479C666.467 26.2149 687.795 4.11977 714.105 1.37335C752.522 -2.63496 781.858 34.7346 798.064 69.7949C814.271 104.863 829.001 145.614 864.119 161.705C894.272 175.52 932.59 167.009 959.65 186.176C993.96 210.49 992.228 266.391 1026.18 291.2C1061.46 316.973 1112.87 292.759 1139.97 258.498C1167.07 224.23 1182.01 180.749 1213.39 150.357C1249.39 115.494 1300.94 99.3211 1352.84 99.3211"
    stroke="black"
    stroke-width="1.5"
    stroke-linecap="round"
    stroke-linejoin="round"
  >
    <animate
      attributeName="stroke-dasharray"
      from="0 3018"
      to="3018 0"
      dur="3s"
      begin="0s"
      fill="freeze"
    />
    <animate
      attributeName="stroke-dashoffset"
      from="1000"
      to="0"
      dur="3s"
      begin="0s"
      fill="freeze"
    />
  </path>
</svg>