<svg width="183" height="37" viewBox="0 0 183 37" fill="none" xmlns="http://www.w3.org/2000/svg">
<path d="M17.3944 0C7.73081 0 0 7.50135 0 18.6014C0 29.6507 7.73081 37 17.3944 37C27.0579 37 34.7888 29.4986 34.7888 18.3986C34.7888 7.3493 27.0579 0 17.3944 0ZM17.3362 26.3838L9.3716 18.4467L17.3362 10.5097L25.3007 18.4467L17.3362 26.3838Z" fill="#79709D"/>
<path d="M126.573 36.9639C125.429 36.9639 124.514 36.5716 123.893 36.0486C124.121 34.9047 124.873 33.728 126.148 33.728C127.128 33.728 127.521 34.0875 128.305 34.0875C129.318 34.0875 129.743 33.2377 131.181 29.8057L131.312 29.5116L126.671 18.6925C125.527 16.045 125.135 15.2279 123.893 15.0318V13.9531H131.181V15.0318L130.56 15.1298C128.861 15.3913 128.632 16.045 129.482 18.0715L132.783 25.9814L136.019 18.2676C136.934 16.1104 136.509 15.3259 135.169 15.1298L134.548 15.0318V13.9531H140.726V15.0318C139.418 15.2932 138.765 16.045 137.653 18.6272L132.62 30.2959C130.364 35.5256 128.926 36.9639 126.573 36.9639Z" fill="#040610"/>
<path d="M113.514 30.3293V29.2507L114.102 29.1854C115.246 29.0546 115.671 28.6951 115.671 27.355V15.6528H113.023V14.6395L115.671 13.8551V12.3842C115.671 7.64479 119.038 5.74902 121.816 5.74902C124.333 5.74902 125.771 6.82765 126.228 7.67748C125.836 8.46193 125.183 9.0176 124.3 9.0176C123.516 9.0176 123.156 8.65805 122.698 8.16776C122.175 7.61211 121.652 7.08914 120.901 7.08914C119.299 7.08914 118.743 8.65805 118.743 12.3189V13.9531H122.96L122.535 15.6528H118.743V27.355C118.743 28.6951 119.136 28.9892 121.13 29.1854L121.783 29.2507V30.3293H113.514Z" fill="#040610"/>
<path d="M104.588 30.3294V29.2508L105.176 29.1855C106.32 29.0548 106.745 28.6952 106.745 27.3551V17.941C106.745 16.6662 106.353 16.4374 104.588 15.9144V15.0646L109.523 13.5938H109.818V27.3551C109.818 28.6952 110.243 29.0548 111.387 29.1855L111.975 29.2508V30.3294H104.588Z" fill="#040610"/>
<path d="M99.2419 30.3943C96.8232 30.3943 95.3523 29.185 95.3523 26.5373V15.653H92.8027V14.6398C95.0254 13.888 96.3329 12.0249 97.1173 9.83496H98.4247V13.9534H102.968L102.543 15.653H98.4247V25.949C98.4247 27.5179 99.2092 28.3024 100.778 28.3024C101.595 28.3024 102.38 28.1389 103.197 27.7794V28.76C102.151 29.806 100.647 30.3943 99.2419 30.3943Z" fill="#040610"/>
<path d="M79.9609 30.3294V29.2508L80.5493 29.1855C81.6933 29.0548 82.1181 28.6952 82.1181 27.3551V17.941C82.1181 16.6662 81.7259 16.4374 79.9609 15.9144V15.0646L84.7984 13.5938H85.0926V17.4833C85.7136 15.751 87.119 13.6264 89.2764 13.6264C90.5183 13.6264 91.5971 14.2802 92.0219 14.8031C91.7604 15.8817 91.0413 16.9277 89.9955 16.9277C89.5705 16.9277 89.2764 16.8296 88.7861 16.6335C88.2631 16.4374 87.9689 16.3394 87.544 16.3394C86.4654 16.3394 85.6482 17.4833 85.1906 18.7908V27.3551C85.1906 28.6952 85.6155 28.9893 87.6093 29.1855L88.2304 29.2508V30.3294H79.9609Z" fill="#040610"/>
<path d="M71.4571 30.4263C67.306 30.4263 64.2988 27.2558 64.2988 22.3204C64.2988 16.9272 67.8943 13.5605 71.5224 13.5605C75.7716 13.5605 77.9616 16.6657 77.9616 19.967C77.9616 20.2938 77.9616 20.6206 77.9288 20.9148H67.1752C67.208 25.9157 69.9208 27.8769 72.7317 27.8769C74.7256 27.8769 76.0984 26.9943 77.4058 25.2947L78.1576 25.785C76.654 28.9882 74.2353 30.4263 71.4571 30.4263ZM67.2405 19.4767H74.7911C74.5949 16.7638 73.3855 14.9007 71.2283 14.9007C69.3324 14.9007 67.6328 16.5023 67.2405 19.4767Z" fill="#040610"/>
<path d="M53.306 30.5246C47.1611 30.5246 42.1602 25.8179 42.1602 18.7251C42.1602 11.5342 47.1284 6.66406 53.4694 6.66406C55.9208 6.66406 58.6992 7.12166 61.1506 8.26566V13.8222H59.9412C58.6992 9.34429 56.2477 8.13492 53.3714 8.13492C48.73 8.13492 45.821 12.1226 45.821 17.9733C45.821 23.824 48.828 28.3346 54.1885 28.3346C56.8687 28.3346 59.2547 27.158 61.3466 23.5952L62.458 24.249C61.0526 27.4848 58.503 30.5246 53.306 30.5246Z" fill="#040610"/>
<path d="M107.979 5.75L109.183 6.97836L110.411 8.18227L109.183 9.38619L107.979 10.6145L106.775 9.38619L105.547 8.18227L106.775 6.97836L107.979 5.75Z" fill="#040610"/>
</svg>
