<svg width="322" height="65" viewBox="0 0 322 65" fill="none" xmlns="http://www.w3.org/2000/svg">
<path d="M30.2672 0C13.452 0 0 13.0528 0 32.3673C0 51.5938 13.452 64.382 30.2672 64.382C47.0822 64.382 60.5345 51.3292 60.5345 32.0146C60.5345 12.7882 47.0822 0 30.2672 0ZM30.1659 45.9092L16.3071 32.0983L30.1659 18.2875L44.0246 32.0983L30.1659 45.9092Z" fill="#D9D5F7"/>
<path d="M220.461 64.3193C218.47 64.3193 216.878 63.6367 215.797 62.7267C216.195 60.7362 217.503 58.6886 219.721 58.6886C221.427 58.6886 222.11 59.3142 223.475 59.3142C225.238 59.3142 225.977 57.8354 228.48 51.8636L228.707 51.3518L220.631 32.5261C218.641 27.9193 217.958 26.4974 215.797 26.1562V24.2793H228.48V26.1562L227.399 26.3268C224.442 26.7818 224.044 27.9193 225.522 31.4455L231.267 45.2091L236.897 31.7868C238.49 28.033 237.751 26.668 235.419 26.3268L234.338 26.1562V24.2793H245.087V26.1562C242.812 26.6112 241.675 27.9193 239.741 32.4124L230.983 52.7167C227.058 61.8166 224.556 64.3193 220.461 64.3193Z" fill="#040610"/>
<path d="M197.74 52.7748V50.898L198.764 50.7844C200.754 50.5569 201.493 49.9312 201.493 47.5994V27.237H196.887V25.4739L201.493 24.1089V21.5495C201.493 13.3026 207.352 10.0039 212.186 10.0039C216.566 10.0039 219.068 11.8808 219.864 13.3595C219.182 14.7245 218.044 15.6914 216.509 15.6914C215.144 15.6914 214.518 15.0658 213.722 14.2126C212.812 13.2458 211.902 12.3358 210.594 12.3358C207.807 12.3358 206.84 15.0658 206.84 21.4358V24.2795H214.177L213.437 27.237H206.84V47.5994C206.84 49.9312 207.522 50.443 210.992 50.7844L212.129 50.898V52.7748H197.74Z" fill="#040610"/>
<path d="M182.203 52.7753V50.8984L183.227 50.7848C185.218 50.5573 185.957 49.9317 185.957 47.5998V31.2187C185.957 29.0005 185.274 28.6024 182.203 27.6924V26.2137L190.791 23.6543H191.303V47.5998C191.303 49.9317 192.043 50.5573 194.033 50.7848L195.057 50.8984V52.7753H182.203Z" fill="#040610"/>
<path d="M172.904 52.8877C168.695 52.8877 166.136 50.7833 166.136 46.1763V27.237H161.699V25.4739C165.567 24.1658 167.842 20.9239 169.207 17.1133H171.482V24.2795H179.387L178.648 27.237H171.482V45.1526C171.482 47.8825 172.847 49.2476 175.577 49.2476C176.999 49.2476 178.364 48.9632 179.785 48.3376V50.0438C177.966 51.864 175.349 52.8877 172.904 52.8877Z" fill="#040610"/>
<path d="M139.352 52.7753V50.8984L140.375 50.7848C142.366 50.5573 143.105 49.9317 143.105 47.5998V31.2187C143.105 29.0005 142.423 28.6024 139.352 27.6924V26.2137L147.769 23.6543H148.281V30.4224C149.362 27.408 151.807 23.7112 155.561 23.7112C157.722 23.7112 159.599 24.8487 160.338 25.7587C159.883 27.6355 158.632 29.4556 156.812 29.4556C156.073 29.4556 155.561 29.2849 154.708 28.9437C153.798 28.6024 153.286 28.4318 152.547 28.4318C150.67 28.4318 149.248 30.4224 148.451 32.6974V47.5998C148.451 49.9317 149.191 50.4434 152.66 50.7848L153.741 50.8984V52.7753H139.352Z" fill="#040610"/>
<path d="M124.557 52.945C117.334 52.945 112.102 47.4282 112.102 38.8403C112.102 29.4558 118.358 23.5977 124.671 23.5977C132.065 23.5977 135.875 29.0008 135.875 34.7452C135.875 35.3139 135.875 35.8825 135.818 36.3945H117.107C117.164 45.0963 121.884 48.5088 126.775 48.5088C130.245 48.5088 132.634 46.9732 134.908 44.0157L136.217 44.8688C133.6 50.4426 129.392 52.945 124.557 52.945ZM117.22 33.892H130.359C130.017 29.1714 127.913 25.9295 124.159 25.9295C120.86 25.9295 117.903 28.7164 117.22 33.892Z" fill="#040610"/>
<path d="M92.9725 53.1162C82.28 53.1162 73.5781 44.9264 73.5781 32.5845C73.5781 20.072 82.2231 11.5977 93.2568 11.5977C97.5225 11.5977 102.357 12.3939 106.622 14.3845V24.0533H104.518C102.357 16.2614 98.0912 14.157 93.0862 14.157C85.01 14.157 79.9481 21.0958 79.9481 31.2764C79.9481 41.4569 85.1806 49.3056 94.5081 49.3056C99.1718 49.3056 103.324 47.2582 106.964 41.0588L108.897 42.1964C106.452 47.8269 102.015 53.1162 92.9725 53.1162Z" fill="#040610"/>
<path d="M188.107 10.0039L190.202 12.1413L192.34 14.2362L190.202 16.3311L188.107 18.4685L186.012 16.3311L183.875 14.2362L186.012 12.1413L188.107 10.0039Z" fill="#040610"/>
</svg>
