<svg width="438" height="365" viewBox="0 0 438 365" fill="none" xmlns="http://www.w3.org/2000/svg">
<g clip-path="url(#clip0_2162_4366)">
<path d="M187.343 222.844C173.248 228.105 157.012 222.593 149.236 209.136C141.467 195.679 144.807 178.863 156.406 169.288C147.534 161.622 137.211 155.593 125.908 151.66C123.426 166.503 110.53 177.812 94.9843 177.812C79.4386 177.812 66.543 166.497 64.0606 151.66C52.7576 155.593 42.4346 161.628 33.5624 169.288C45.162 178.863 48.502 195.679 40.7324 209.136C32.9628 222.599 16.7208 228.112 2.62584 222.844C1.54261 228.55 0.96875 234.437 0.96875 240.459C0.96875 246.482 1.54261 252.368 2.62584 258.075C16.7208 252.813 32.9563 258.326 40.7324 271.783C48.502 285.239 45.162 302.055 33.5624 311.63C42.4346 319.297 52.7576 325.325 64.0606 329.259C66.543 314.416 79.4386 303.106 94.9843 303.106C110.53 303.106 123.426 314.422 125.908 329.259C137.211 325.325 147.534 319.29 156.406 311.63C144.807 302.055 141.467 285.239 149.236 271.783C157.006 258.32 173.248 252.807 187.343 258.075C188.426 252.368 189 246.482 189 240.459C189 234.437 188.426 228.55 187.343 222.844ZM94.9843 264.226C81.8565 264.226 71.2176 253.587 71.2176 240.459C71.2176 227.332 81.8565 216.693 94.9843 216.693C108.112 216.693 118.757 227.332 118.757 240.459C118.757 253.587 108.118 264.226 94.9843 264.226Z" fill="white" stroke="#040610" stroke-width="1.5" stroke-linecap="round" stroke-linejoin="round"/>
<path d="M435.378 222.844C421.283 228.105 405.047 222.593 397.271 209.136C389.502 195.679 392.842 178.863 404.441 169.288C395.569 161.622 385.246 155.593 373.943 151.66C371.461 166.503 358.565 177.812 343.019 177.812C327.474 177.812 314.578 166.497 312.096 151.66C300.793 155.593 290.47 161.628 281.598 169.288C293.197 178.863 296.537 195.679 288.768 209.136C280.998 222.599 264.756 228.112 250.661 222.844C249.578 228.55 249.004 234.437 249.004 240.459C249.004 246.482 249.578 252.368 250.661 258.075C264.756 252.813 280.992 258.326 288.768 271.783C296.537 285.239 293.197 302.055 281.598 311.63C290.47 319.297 300.793 325.325 312.096 329.259C314.578 314.416 327.474 303.106 343.019 303.106C358.565 303.106 371.461 314.422 373.943 329.259C385.246 325.325 395.569 319.29 404.441 311.63C392.842 302.055 389.502 285.239 397.271 271.783C405.041 258.32 421.283 252.807 435.378 258.075C436.461 252.368 437.035 246.482 437.035 240.459C437.035 234.437 436.461 228.55 435.378 222.844ZM343.019 264.226C329.892 264.226 319.253 253.587 319.253 240.459C319.253 227.332 329.892 216.693 343.019 216.693C356.147 216.693 366.793 227.332 366.793 240.459C366.793 253.587 356.154 264.226 343.019 264.226Z" fill="#FFF38B" stroke="#040610" stroke-width="1.5" stroke-linecap="round" stroke-linejoin="round"/>
<path d="M311.573 105.912C297.478 111.174 281.243 105.661 273.467 92.2043C265.697 78.7477 269.037 61.9318 280.637 52.3568C271.764 44.6904 261.441 38.6617 250.138 34.7285C247.656 49.5714 234.76 60.8808 219.215 60.8808C203.669 60.8808 190.773 49.5649 188.291 34.7285C176.988 38.6617 166.665 44.6968 157.793 52.3568C169.393 61.9318 172.732 78.7477 164.963 92.2043C157.193 105.667 140.951 111.18 126.856 105.912C125.773 111.619 125.199 117.506 125.199 123.528C125.199 129.55 125.773 135.437 126.856 141.143C140.951 135.882 157.187 141.395 164.963 154.851C172.732 168.308 169.393 185.124 157.793 194.699C166.665 202.365 176.988 208.394 188.291 212.327C190.773 197.484 203.669 186.175 219.215 186.175C234.76 186.175 247.656 197.491 250.138 212.327C261.441 208.394 271.764 202.359 280.637 194.699C269.037 185.124 265.697 168.308 273.467 154.851C281.236 141.388 297.478 135.875 311.573 141.143C312.656 135.437 313.23 129.55 313.23 123.528C313.23 117.506 312.656 111.619 311.573 105.912ZM219.215 147.294C206.087 147.294 195.448 136.655 195.448 123.528C195.448 110.4 206.087 99.7611 219.215 99.7611C232.342 99.7611 242.988 110.4 242.988 123.528C242.988 136.655 232.349 147.294 219.215 147.294Z" fill="#E5974D" stroke="#040610" stroke-width="1.5" stroke-linecap="round" stroke-linejoin="round"/>
<path d="M76.3555 358.26C100.258 366.016 126.964 364.766 150.035 354.804C173.105 344.842 192.326 326.253 203.068 303.537C197.89 305.278 192.706 307.019 187.529 308.766" stroke="#040610" stroke-width="1.5" stroke-linecap="round" stroke-linejoin="round"/>
<path d="M205.339 320.134L203.062 303.537" stroke="#040610" stroke-width="1.5" stroke-linecap="round" stroke-linejoin="round"/>
<path d="M195.445 6.00234C219.347 -1.75437 246.054 -0.503499 269.124 9.45837C292.195 19.4202 311.416 38.0093 322.158 60.7249C316.98 58.984 311.796 57.2431 306.618 55.4957" stroke="#040610" stroke-width="1.5" stroke-linecap="round" stroke-linejoin="round"/>
<path d="M324.428 44.1289L322.152 60.7256" stroke="#040610" stroke-width="1.5" stroke-linecap="round" stroke-linejoin="round"/>
</g>
<defs>
<clipPath id="clip0_2162_4366">
<rect width="438" height="364.263" fill="white"/>
</clipPath>
</defs>
</svg>
