<svg width="54" height="46" viewBox="0 0 54 46" fill="none" xmlns="http://www.w3.org/2000/svg">
<g id="Layer_1">
<g id="Group">
<path id="Vector" d="M29.4117 36.8729V25.431H31.2213V21.6348H22.7892V25.431H24.5988V36.8729C20.9595 37.918 18.2969 41.2701 18.2969 45.2449H35.7169C35.7169 41.2701 33.0543 37.9163 29.415 36.8729H29.4117Z" fill="white" stroke="#040610" stroke-width="0.5"/>
<path id="Vector_2" d="M29.6502 36.8731V32.9968C29.6502 30.9468 29.6502 28.8951 29.6502 26.8451V25.4311L29.4099 25.6715H31.2195C31.3497 25.6715 31.4599 25.5613 31.4599 25.4311V21.6349C31.4599 21.5047 31.3497 21.3945 31.2195 21.3945C30.2713 21.3945 29.3231 21.3945 28.3748 21.3945C26.8624 21.3945 25.3482 21.3945 23.8358 21.3945H22.7874C22.6572 21.3945 22.547 21.5047 22.547 21.6349V25.4311C22.547 25.5613 22.6572 25.6715 22.7874 25.6715H24.597L24.3566 25.4311V36.8731L24.5336 36.641C21.6422 37.4807 19.3134 39.7645 18.437 42.6492C18.1816 43.4889 18.058 44.3686 18.0547 45.2467C18.0547 45.3769 18.1649 45.4871 18.2951 45.4871H33.5683C34.2711 45.4871 34.9823 45.5172 35.6851 45.4871C35.6951 45.4871 35.7051 45.4871 35.7151 45.4871C35.8453 45.4871 35.9555 45.3769 35.9555 45.2467C35.9455 42.1984 34.3663 39.3204 31.7921 37.6827C31.0759 37.227 30.2913 36.8798 29.4766 36.6427C29.1795 36.5559 29.0509 37.02 29.3481 37.1068C32.0759 37.8998 34.2828 40.0549 35.1091 42.7777C35.3529 43.579 35.4714 44.4087 35.4747 45.2467L35.7151 45.0063H33.9806C32.5917 45.0063 31.2028 45.0063 29.8155 45.0063C28.1428 45.0063 26.4701 45.0063 24.799 45.0063H19.0112C18.7926 45.0063 18.5438 44.973 18.3268 45.0063C18.3168 45.0063 18.3068 45.0063 18.2967 45.0063L18.5371 45.2467C18.5472 42.3704 20.0312 39.6443 22.4635 38.0984C23.1463 37.6644 23.8859 37.3322 24.6638 37.1068C24.7656 37.0768 24.8407 36.9816 24.8407 36.8748V25.4328C24.8407 25.3026 24.7306 25.1924 24.6004 25.1924H22.7907L23.0311 25.4328V21.6366L22.7907 21.877H31.2228L30.9824 21.6366V25.4328L31.2228 25.1924H29.4132C29.283 25.1924 29.1728 25.3026 29.1728 25.4328V29.3091C29.1728 31.3591 29.1728 33.4108 29.1728 35.4608V36.8748C29.1728 37.1836 29.6536 37.1853 29.6536 36.8748L29.6502 36.8731Z" fill="#040610" stroke="#040610" stroke-width="0.5"/>
</g>
<g id="Group_2">
<g id="Group_3">
<g id="Group_4">
<path id="Vector_3" d="M49.0217 0.740234C49.0217 3.19924 47.0284 5.19249 44.5694 5.19249C42.1104 5.19249 40.1172 3.19924 40.1172 0.740234H49.0217Z" fill="white" stroke="#040610" stroke-width="0.5"/>
<path id="Vector_4" d="M48.7818 0.740392C48.7701 2.4849 47.6716 4.0992 46.0189 4.69684C44.3662 5.29448 42.4515 4.78198 41.3163 3.41475C40.6936 2.66519 40.3647 1.71031 40.3597 0.740392L40.1193 0.980783H43.1175C44.7185 0.980783 46.3211 0.980783 47.922 0.980783H49.0222C49.331 0.980783 49.3327 0.5 49.0222 0.5C48.0222 0.5 47.0222 0.5 46.0239 0.5C44.423 0.5 42.8204 0.5 41.2194 0.5H40.1193C39.9891 0.5 39.8773 0.61018 39.8789 0.740392C39.8923 2.69191 41.1143 4.45478 42.9422 5.1409C44.7802 5.83035 46.9388 5.24941 48.1825 3.7336C48.8769 2.88722 49.2559 1.83551 49.2626 0.740392C49.2642 0.429886 48.7834 0.429886 48.7818 0.740392Z" fill="#040610" stroke="#040610" stroke-width="0.5"/>
</g>
<g id="Group_5">
<path id="Vector_5" d="M37.4569 16.3724H37.4219V12.3274H37.4569C43.8457 12.3274 49.0441 7.12898 49.0441 0.740234H53.0891C53.0891 9.35928 46.076 16.3724 37.4569 16.3724Z" fill="white" stroke="#040610" stroke-width="0.5"/>
<g id="Vector_6">
<path d="M37.4551 16.1321H37.4201L37.6605 16.3725C37.6605 15.1956 37.6605 14.017 37.6605 12.8401V12.3276L37.4201 12.568C39.849 12.568 42.2496 11.8268 44.2379 10.4245C46.2261 9.02222 47.7152 7.08239 48.5532 4.83206C49.039 3.5266 49.2794 2.13433 49.2827 0.740392L49.0424 0.980784C50.2193 0.980784 51.3979 0.980784 52.5748 0.980784H53.0873L52.8469 0.740392C52.8402 3.92224 51.8486 7.044 50.0073 9.6399C48.2193 12.1607 45.6618 14.1255 42.7588 15.1906C41.0593 15.8133 39.2648 16.1288 37.4551 16.1321C37.1463 16.1321 37.1446 16.6146 37.4551 16.6129C40.7338 16.6062 43.9724 15.5829 46.6434 13.6765C49.236 11.8235 51.2426 9.2142 52.3511 6.22433C53.0005 4.47314 53.3243 2.60677 53.3277 0.740392C53.3277 0.61018 53.2175 0.5 53.0873 0.5C51.9104 0.5 50.7318 0.5 49.5549 0.5H49.0424C48.9121 0.5 48.802 0.61018 48.802 0.740392C48.7953 3.09757 48.0608 5.40299 46.6935 7.32446C45.363 9.19417 43.4499 10.6482 41.288 11.4211C40.046 11.8652 38.7389 12.0872 37.4201 12.0872C37.2899 12.0872 37.1797 12.1974 37.1797 12.3276C37.1797 13.5045 37.1797 14.6831 37.1797 15.86V16.3725C37.1797 16.5027 37.2899 16.6129 37.4201 16.6129H37.4551C37.764 16.6129 37.7656 16.1321 37.4551 16.1321Z" fill="#040610"/>
<path d="M37.4551 16.1321H37.4201L37.6605 16.3725C37.6605 15.1956 37.6605 14.017 37.6605 12.8401V12.3276L37.4201 12.568C39.849 12.568 42.2496 11.8268 44.2379 10.4245C46.2261 9.02222 47.7152 7.08239 48.5532 4.83206C49.039 3.5266 49.2794 2.13433 49.2827 0.740392L49.0424 0.980784C50.2193 0.980784 51.3979 0.980784 52.5748 0.980784H53.0873L52.8469 0.740392C52.8402 3.92224 51.8486 7.044 50.0073 9.6399C48.2193 12.1607 45.6618 14.1255 42.7588 15.1906C41.0593 15.8133 39.2648 16.1288 37.4551 16.1321ZM37.4551 16.1321C37.1463 16.1321 37.1446 16.6146 37.4551 16.6129M37.4551 16.1321C37.7656 16.1321 37.764 16.6129 37.4551 16.6129M37.4551 16.6129C40.7338 16.6062 43.9724 15.5829 46.6434 13.6765C49.236 11.8235 51.2426 9.2142 52.3511 6.22433C53.0005 4.47314 53.3243 2.60677 53.3277 0.740392C53.3277 0.61018 53.2175 0.5 53.0873 0.5C51.9104 0.5 50.7318 0.5 49.5549 0.5H49.0424C48.9121 0.5 48.802 0.61018 48.802 0.740392C48.7953 3.09757 48.0608 5.40299 46.6935 7.32446C45.363 9.19417 43.4499 10.6482 41.288 11.4211C40.046 11.8652 38.7389 12.0872 37.4201 12.0872C37.2899 12.0872 37.1797 12.1974 37.1797 12.3276C37.1797 13.5045 37.1797 14.6831 37.1797 15.86V16.3725C37.1797 16.5027 37.2899 16.6129 37.4201 16.6129H37.4551Z" stroke="#040610" stroke-width="0.5"/>
</g>
</g>
</g>
<g id="Group_6">
<g id="Group_7">
<path id="Vector_7" d="M4.98438 0.740234C4.98438 3.19924 6.97762 5.19249 9.43663 5.19249C11.8956 5.19249 13.8889 3.19924 13.8889 0.740234H4.98438Z" fill="white" stroke="#040610" stroke-width="0.5"/>
<path id="Vector_8" d="M4.74219 0.740392C4.75555 2.69191 5.97754 4.45478 7.80552 5.1409C9.6335 5.82701 11.802 5.24941 13.0457 3.7336C13.7402 2.88722 14.1191 1.83551 14.1258 0.740392C14.1275 0.61018 14.0156 0.5 13.8871 0.5C12.8871 0.5 11.8872 0.5 10.8889 0.5C9.28793 0.5 7.68532 0.5 6.08438 0.5C5.71711 0.5 5.35152 0.5 4.98425 0.5C4.67375 0.5 4.67208 0.980784 4.98258 0.980784C5.98255 0.980784 6.98251 0.980784 7.9808 0.980784C9.58175 0.980784 11.1844 0.980784 12.7853 0.980784C13.1526 0.980784 13.5182 0.980784 13.8854 0.980784L13.645 0.740392C13.6333 2.4849 12.5349 4.0992 10.8822 4.69684C9.2295 5.29448 7.31472 4.78198 6.17953 3.41475C5.55685 2.6652 5.22798 1.71031 5.22298 0.740392C5.22131 0.431555 4.74052 0.429886 4.74219 0.740392Z" fill="#040610" stroke="#040610" stroke-width="0.5"/>
</g>
<g id="Group_8">
<path id="Vector_9" d="M16.5501 16.3724H16.5852V12.3274H16.5501C10.1614 12.3274 4.96289 7.12898 4.96289 0.740234H0.917969C0.917969 9.35928 7.93106 16.3724 16.5501 16.3724Z" fill="white" stroke="#040610" stroke-width="0.5"/>
<g id="Vector_10">
<path d="M16.5483 16.6129H16.5834C16.7136 16.6129 16.8238 16.5027 16.8238 16.3725C16.8238 15.1956 16.8238 14.017 16.8238 12.8401C16.8238 12.6698 16.8238 12.4979 16.8238 12.3276C16.8238 12.1974 16.7136 12.0872 16.5834 12.0872C14.2512 12.0872 11.9675 11.3761 10.0544 10.0405C8.173 8.72674 6.7006 6.83032 5.90597 4.67681C5.44021 3.41475 5.2065 2.08425 5.20316 0.740392C5.20149 0.61018 5.09298 0.5 4.9611 0.5C3.78418 0.5 2.60559 0.5 1.42867 0.5C1.2584 0.5 1.08645 0.5 0.916173 0.5C0.785961 0.5 0.675781 0.61018 0.675781 0.740392C0.682459 4.01907 1.70579 7.25768 3.61223 9.9287C5.51867 12.5997 8.0745 14.5279 11.0644 15.6363C12.8156 16.2857 14.6819 16.6096 16.5483 16.6129C16.8588 16.6129 16.8588 16.1321 16.5483 16.1321C13.3665 16.1255 10.2447 15.1338 7.64881 13.2925C5.12804 11.5046 3.16317 8.9471 2.0981 6.04403C1.47542 4.34627 1.1599 2.55001 1.15656 0.740392L0.916173 0.980784C2.09309 0.980784 3.27168 0.980784 4.4486 0.980784C4.61887 0.980784 4.79082 0.980784 4.9611 0.980784L4.72071 0.740392C4.72738 3.19439 5.49363 5.61667 6.92764 7.61159C8.36164 9.60651 10.3015 11.0605 12.5618 11.8752C13.8489 12.3393 15.2161 12.5663 16.5834 12.5663L16.343 12.3259C16.343 13.5029 16.343 14.6814 16.343 15.8584C16.343 16.0286 16.343 16.2006 16.343 16.3709L16.5834 16.1305H16.5483C16.2395 16.1305 16.2378 16.6113 16.5483 16.6113V16.6129Z" fill="#040610"/>
<path d="M16.5483 16.6129H16.5834C16.7136 16.6129 16.8238 16.5027 16.8238 16.3725C16.8238 15.1956 16.8238 14.017 16.8238 12.8401C16.8238 12.6698 16.8238 12.4979 16.8238 12.3276C16.8238 12.1974 16.7136 12.0872 16.5834 12.0872C14.2512 12.0872 11.9675 11.3761 10.0544 10.0405C8.173 8.72674 6.7006 6.83032 5.90597 4.67681C5.44021 3.41475 5.2065 2.08425 5.20316 0.740392C5.20149 0.61018 5.09298 0.5 4.9611 0.5C3.78418 0.5 2.60559 0.5 1.42867 0.5C1.2584 0.5 1.08645 0.5 0.916173 0.5C0.785961 0.5 0.675781 0.61018 0.675781 0.740392C0.682459 4.01907 1.70579 7.25768 3.61223 9.9287C5.51867 12.5997 8.0745 14.5279 11.0644 15.6363C12.8156 16.2857 14.6819 16.6096 16.5483 16.6129ZM16.5483 16.6129C16.8588 16.6129 16.8588 16.1321 16.5483 16.1321C13.3665 16.1255 10.2447 15.1338 7.64881 13.2925C5.12804 11.5046 3.16317 8.9471 2.0981 6.04403C1.47542 4.34627 1.1599 2.55001 1.15656 0.740392L0.916173 0.980784C2.09309 0.980784 3.27168 0.980784 4.4486 0.980784C4.61887 0.980784 4.79082 0.980784 4.9611 0.980784L4.72071 0.740392C4.72738 3.19439 5.49363 5.61667 6.92764 7.61159C8.36164 9.60651 10.3015 11.0605 12.5618 11.8752C13.8489 12.3393 15.2161 12.5663 16.5834 12.5663L16.343 12.3259C16.343 13.5029 16.343 14.6814 16.343 15.8584C16.343 16.0286 16.343 16.2006 16.343 16.3709L16.5834 16.1305H16.5483C16.2395 16.1305 16.2378 16.6113 16.5483 16.6113V16.6129Z" stroke="#040610" stroke-width="0.5"/>
</g>
</g>
</g>
</g>
<g id="Group_9">
<path id="Vector_11" d="M40.1144 0.740234H13.8884C13.8884 0.740234 11.6764 22.6693 26.9997 22.671C42.323 22.6693 40.1111 0.740234 40.1111 0.740234H40.1144Z" fill="white" stroke="#040610" stroke-width="0.5"/>
<g id="Vector_12">
<path d="M40.1131 0.5H35.6425C33.2954 0.5 30.9499 0.5 28.6027 0.5C27.7246 0.5 26.8465 0.5 25.9684 0.5C23.7281 0.5 21.4878 0.5 19.2475 0.5H13.8871C13.7468 0.5 13.66 0.61018 13.6467 0.740392C13.5732 1.47158 13.5515 2.21279 13.5398 2.94732C13.5131 4.71353 13.5999 6.48475 13.8203 8.23761C14.0941 10.4212 14.5632 12.5964 15.3795 14.6464C16.1958 16.6964 17.4095 18.708 19.1206 20.1854C21.0287 21.8348 23.4276 22.6978 25.9284 22.8748C26.2839 22.8998 26.6412 22.9115 26.9984 22.9115L26.758 22.6711C26.758 22.7997 26.8682 22.9149 26.9984 22.9115C26.9984 22.9115 26.9984 22.9115 27.0001 22.9115C27.1303 22.9132 27.2405 22.7997 27.2405 22.6711C27.1604 22.7513 27.0802 22.8314 27.0001 22.9115C29.5676 22.9082 32.1335 22.2588 34.2152 20.7146C36.0348 19.3641 37.3687 17.4793 38.2902 15.426C39.2 13.3977 39.7475 11.2225 40.0731 9.02723C40.3452 7.18757 40.4687 5.3262 40.4654 3.46817C40.4637 2.57338 40.4487 1.67024 40.3585 0.780457C40.3585 0.768771 40.3569 0.755416 40.3552 0.743731C40.3252 0.438233 39.8427 0.434894 39.8744 0.743731C39.9462 1.46157 39.9679 2.18608 39.9796 2.90726C40.008 4.63841 39.9262 6.37457 39.7192 8.09404C39.4621 10.2259 39.0013 12.3493 38.2234 14.3542C37.4455 16.3592 36.2719 18.3224 34.6209 19.7764C32.8012 21.379 30.4758 22.2254 28.0735 22.3957C27.7179 22.4207 27.3607 22.4324 27.0034 22.4324C26.8732 22.4324 26.7631 22.5426 26.7631 22.6728C26.8432 22.5927 26.9233 22.5125 27.0034 22.4324C27.0034 22.4324 27.0034 22.4324 27.0018 22.4324L27.2422 22.6728C27.2422 22.5426 27.132 22.4324 27.0018 22.4324C24.486 22.4291 22.0003 21.7847 19.972 20.2572C18.2158 18.935 16.9554 17.0637 16.0773 15.0704C15.1992 13.0772 14.69 10.9437 14.3795 8.80019C14.1208 7.01395 14.0123 5.20266 14.019 3.39806C14.0206 2.80542 14.0356 2.21446 14.0674 1.62183C14.0824 1.34471 14.1325 1.05591 14.1258 0.778788C14.1258 0.767102 14.1275 0.753747 14.1291 0.742061L13.8887 0.982453H28.0335C30.2738 0.982453 32.5141 0.982453 34.7544 0.982453C36.5106 0.982453 38.2685 0.982453 40.0247 0.982453H40.1148C40.4236 0.982453 40.4253 0.501669 40.1148 0.501669L40.1131 0.5Z" fill="#040610"/>
<path d="M26.9984 22.9115C26.6412 22.9115 26.2839 22.8998 25.9284 22.8748C23.4276 22.6978 21.0287 21.8348 19.1206 20.1854C17.4095 18.708 16.1958 16.6964 15.3795 14.6464C14.5632 12.5964 14.0941 10.4212 13.8203 8.23761C13.5999 6.48475 13.5131 4.71353 13.5398 2.94732C13.5515 2.21279 13.5732 1.47158 13.6467 0.740392C13.66 0.61018 13.7468 0.5 13.8871 0.5H19.2475C21.4878 0.5 23.7281 0.5 25.9684 0.5C26.8465 0.5 27.7246 0.5 28.6027 0.5C30.9499 0.5 33.2954 0.5 35.6425 0.5H40.1131L40.1148 0.501669C40.4253 0.501669 40.4236 0.982453 40.1148 0.982453H40.0247C38.2685 0.982453 36.5106 0.982453 34.7544 0.982453C32.5141 0.982453 30.2738 0.982453 28.0335 0.982453H13.8887L14.1291 0.742061C14.1275 0.753747 14.1258 0.767102 14.1258 0.778788C14.1325 1.05591 14.0824 1.34471 14.0674 1.62183C14.0356 2.21446 14.0206 2.80542 14.019 3.39806C14.0123 5.20266 14.1208 7.01395 14.3795 8.80019C14.69 10.9437 15.1992 13.0772 16.0773 15.0704C16.9554 17.0637 18.2158 18.935 19.972 20.2572C22.0003 21.7847 24.486 22.4291 27.0018 22.4324M26.9984 22.9115L26.758 22.6711C26.758 22.7997 26.8682 22.9149 26.9984 22.9115ZM26.9984 22.9115C26.9984 22.9115 26.9984 22.9115 27.0001 22.9115M27.0001 22.9115C27.1303 22.9132 27.2405 22.7997 27.2405 22.6711C27.1604 22.7513 27.0802 22.8314 27.0001 22.9115ZM27.0001 22.9115C29.5676 22.9082 32.1335 22.2588 34.2152 20.7146C36.0348 19.3641 37.3687 17.4793 38.2902 15.426C39.2 13.3977 39.7475 11.2225 40.0731 9.02723C40.3452 7.18757 40.4687 5.3262 40.4654 3.46817C40.4637 2.57338 40.4487 1.67024 40.3585 0.780457C40.3585 0.768771 40.3569 0.755416 40.3552 0.743731C40.3252 0.438233 39.8427 0.434894 39.8744 0.743731C39.9462 1.46157 39.9679 2.18608 39.9796 2.90726C40.008 4.63841 39.9262 6.37457 39.7192 8.09404C39.4621 10.2259 39.0013 12.3493 38.2234 14.3542C37.4455 16.3592 36.2719 18.3224 34.6209 19.7764C32.8012 21.379 30.4758 22.2254 28.0735 22.3957C27.7179 22.4207 27.3607 22.4324 27.0034 22.4324M27.0034 22.4324C26.8732 22.4324 26.7631 22.5426 26.7631 22.6728C26.8432 22.5927 26.9233 22.5125 27.0034 22.4324ZM27.0034 22.4324C27.0034 22.4324 27.0034 22.4324 27.0018 22.4324M27.0018 22.4324L27.2422 22.6728C27.2422 22.5426 27.132 22.4324 27.0018 22.4324Z" stroke="#040610" stroke-width="0.5"/>
</g>
</g>
</g>
</svg>
