<svg width="54" height="42" viewBox="0 0 54 42" fill="none" xmlns="http://www.w3.org/2000/svg">
<g id="Layer_1" clip-path="url(#clip0_1241_2016)">
<g id="Group">
<path id="Vector" d="M40.9497 0.21582H3.09556C1.60814 0.21582 0.402344 1.42162 0.402344 2.90904V23.2487C0.402344 24.7361 1.60814 25.9419 3.09556 25.9419H40.9497C42.4371 25.9419 43.6429 24.7361 43.6429 23.2487V2.90904C43.6429 1.42162 42.4371 0.21582 40.9497 0.21582Z" fill="white" stroke="#040610" stroke-width="0.5"/>
<path id="Vector_2" d="M40.9492 25.7168H40.2631C39.6236 25.7168 38.9856 25.7168 38.3461 25.7168C37.3805 25.7168 36.415 25.7168 35.451 25.7168H31.8016C30.4045 25.7168 29.0059 25.7168 27.6089 25.7168C26.1218 25.7168 24.6331 25.7168 23.146 25.7168C21.6589 25.7168 20.133 25.7168 18.6258 25.7168C17.1185 25.7168 15.7152 25.7168 14.2607 25.7168H10.3241C9.22511 25.7168 8.12609 25.7168 7.02552 25.7168C6.21367 25.7168 5.40182 25.7168 4.58842 25.7168C4.14912 25.7168 3.70983 25.7168 3.26898 25.7168C3.20068 25.7168 3.13393 25.7168 3.06563 25.7168C2.04112 25.7012 1.09732 25.0353 0.76203 24.0605C0.572651 23.5063 0.625429 22.8885 0.625429 22.3095C0.625429 21.3378 0.625429 20.3676 0.625429 19.3959C0.625429 18.4241 0.625429 16.6561 0.625429 15.2854V6.67019C0.625429 5.71242 0.625429 4.75311 0.625429 3.79535C0.625429 3.18064 0.572651 2.53799 0.813256 1.95899C1.19512 1.04159 2.10786 0.44706 3.09667 0.439299C3.16032 0.439299 3.22241 0.439299 3.28605 0.439299H7.09382C8.19905 0.439299 9.30428 0.439299 10.4095 0.439299C11.7258 0.439299 13.0422 0.439299 14.3585 0.439299C15.8084 0.439299 17.2598 0.439299 18.7096 0.439299C20.1594 0.439299 21.7381 0.439299 23.2516 0.439299C24.7371 0.439299 26.2242 0.439299 27.7098 0.439299C29.1037 0.439299 30.4977 0.439299 31.8916 0.439299C33.1024 0.439299 34.3148 0.439299 35.5255 0.439299H40.2849C40.555 0.439299 40.8282 0.428433 41.0983 0.443955C42.1212 0.50139 43.0262 1.22631 43.3149 2.2058C43.4019 2.50074 43.4158 2.79878 43.4158 3.10303C43.4158 3.78448 43.4158 4.46438 43.4158 5.14584C43.4158 5.82729 43.4158 7.57828 43.4158 8.79527C43.4158 10.2668 43.4158 11.7384 43.4158 13.21C43.4158 14.6738 43.4158 16.1376 43.4158 17.6014V23.1089C43.4158 23.4737 43.3755 23.8292 43.2389 24.1722C42.8679 25.1067 41.9412 25.709 40.9446 25.7199C40.6574 25.723 40.6559 26.17 40.9446 26.1669C41.98 26.1561 42.9532 25.6081 43.4733 24.7062C43.7465 24.2328 43.8613 23.7035 43.8613 23.1602V13.3621C43.8613 11.8735 43.8613 10.3848 43.8613 8.89617C43.8613 7.66055 43.8613 6.42648 43.8613 5.19086V3.10613C43.8613 2.79257 43.8474 2.48211 43.7666 2.17476C43.5105 1.18595 42.7204 0.383416 41.7378 0.104004C41.3032 -0.0232836 40.8577 -0.00931298 40.4075 -0.00931298C39.8036 -0.00931298 39.1998 -0.00931298 38.5975 -0.00931298C37.6522 -0.00931298 36.7084 -0.00931298 35.763 -0.00931298H32.1198C30.7197 -0.00931298 29.3195 -0.00931298 27.9193 -0.00931298C26.4214 -0.00931298 24.9234 -0.00931298 23.427 -0.00931298C21.898 -0.00931298 20.369 -0.00931298 18.84 -0.00931298C17.311 -0.00931298 15.8937 -0.00931298 14.4206 -0.00931298C13.0903 -0.00931298 11.76 -0.00931298 10.4281 -0.00931298C9.30738 -0.00931298 8.18663 -0.00931298 7.06743 -0.00931298C6.24471 -0.00931298 5.422 -0.00931298 4.59929 -0.00931298C4.15533 -0.00931298 3.71138 -0.00931298 3.26742 -0.00931298C3.16963 -0.00931298 3.07339 -0.0108653 2.97559 -0.0062084C1.94643 0.0403603 0.988664 0.637992 0.512111 1.55229C0.156637 2.23685 0.178369 2.94004 0.178369 3.67737C0.178369 4.6134 0.178369 5.54943 0.178369 6.48391C0.178369 7.85458 0.178369 9.2237 0.178369 10.5944C0.178369 12.1172 0.178369 13.6384 0.178369 15.1612C0.178369 16.5505 0.178369 17.9398 0.178369 19.3291C0.178369 20.3195 0.178369 21.3114 0.178369 22.3017C0.178369 22.8947 0.128696 23.5265 0.304105 24.0977C0.698386 25.3846 1.8921 26.1654 3.20844 26.1654H27.5235C28.9361 26.1654 30.3487 26.1654 31.7612 26.1654H40.9477C41.2349 26.1654 41.2364 25.7183 40.9477 25.7183L40.9492 25.7168Z" fill="#040610" stroke="#040610" stroke-width="0.5"/>
</g>
<g id="Group_2">
<path id="Vector_3" d="M50.9106 16.0596H13.0565C11.5691 16.0596 10.3633 17.2654 10.3633 18.7528V39.0924C10.3633 40.5799 11.5691 41.7857 13.0565 41.7857H50.9106C52.398 41.7857 53.6038 40.5799 53.6038 39.0924V18.7528C53.6038 17.2654 52.398 16.0596 50.9106 16.0596Z" fill="white" stroke="#040610" stroke-width="0.5"/>
<path id="Vector_4" d="M50.9086 41.5619H41.7594C40.3623 41.5619 38.9637 41.5619 37.5666 41.5619C36.0796 41.5619 34.5909 41.5619 33.1038 41.5619H13.2283C13.16 41.5619 13.0933 41.5619 13.025 41.5619C12.0005 41.5464 11.0567 40.8805 10.7214 39.9056C10.532 39.3515 10.5848 38.7336 10.5848 38.1546C10.5848 37.1829 10.5848 36.2127 10.5848 35.241C10.5848 33.8703 10.5848 32.5012 10.5848 31.1305V26.6056C10.5848 25.2427 10.5848 23.8782 10.5848 22.5153C10.5848 21.5576 10.5848 20.5983 10.5848 19.6405C10.5848 18.6827 10.532 18.3831 10.7726 17.8041C11.1545 16.8852 12.0672 16.2922 13.056 16.2829C13.1197 16.2829 13.1817 16.2829 13.2454 16.2829C13.694 16.2829 14.1442 16.2829 14.5928 16.2829C15.4124 16.2829 16.232 16.2829 17.0532 16.2829C18.1584 16.2829 19.2636 16.2829 20.3688 16.2829C21.6852 16.2829 23.0015 16.2829 24.3179 16.2829C25.7677 16.2829 27.2191 16.2829 28.6689 16.2829C30.1188 16.2829 31.6974 16.2829 33.2109 16.2829C34.6965 16.2829 36.1836 16.2829 37.6691 16.2829C39.0631 16.2829 40.457 16.2829 41.851 16.2829C43.0618 16.2829 44.2741 16.2829 45.4849 16.2829C46.4426 16.2829 47.402 16.2829 48.3597 16.2829C48.9884 16.2829 49.6155 16.2829 50.2442 16.2829C50.5143 16.2829 50.7875 16.272 51.0576 16.2875C52.0806 16.345 52.9855 17.0699 53.2743 18.0494C53.3612 18.3443 53.3752 18.6424 53.3752 18.9466V20.9894C53.3752 22.2064 53.3752 23.4219 53.3752 24.6389C53.3752 26.1104 53.3752 27.582 53.3752 29.0536V33.445C53.3752 34.6387 53.3752 35.8309 53.3752 37.0246C53.3752 38.2183 53.3752 38.3099 53.3752 38.9525C53.3752 39.3173 53.3348 39.6728 53.1982 40.0158C52.8272 40.9503 51.9005 41.5526 50.9039 41.5635C50.6167 41.5666 50.6152 42.0136 50.9039 42.0105C51.9393 41.9997 52.9126 41.4517 53.4326 40.5498C53.7058 40.0764 53.8207 39.547 53.8207 39.0037V33.6406C53.8207 32.1628 53.8207 30.6835 53.8207 29.2057C53.8207 27.7171 53.8207 26.2284 53.8207 24.7398V18.9497C53.8207 18.6362 53.8067 18.3257 53.726 18.0184C53.4698 17.0295 52.6797 16.227 51.6971 15.9476C51.2563 15.8234 50.8123 15.8374 50.3606 15.8374H42.0714C40.6712 15.8374 39.2711 15.8374 37.8709 15.8374C36.3729 15.8374 34.875 15.8374 33.3786 15.8374C31.8496 15.8374 30.3206 15.8374 28.7916 15.8374H24.3722C23.0419 15.8374 21.7116 15.8374 20.3797 15.8374C19.259 15.8374 18.1382 15.8374 17.019 15.8374C16.1963 15.8374 15.3736 15.8374 14.5509 15.8374C14.1069 15.8374 13.663 15.8374 13.219 15.8374C13.1212 15.8374 13.025 15.8358 12.9272 15.8405C11.8996 15.8855 10.9418 16.4847 10.4652 17.399C10.1098 18.082 10.1315 18.7867 10.1315 19.5225C10.1315 20.4586 10.1315 21.3946 10.1315 22.3291V35.1727C10.1315 36.1631 10.1315 37.155 10.1315 38.1453C10.1315 38.7383 10.0818 39.3701 10.2572 39.9413C10.6515 41.2282 11.8452 42.009 13.1616 42.009H20.0491C21.3639 42.009 22.6786 42.009 23.9934 42.009C25.4572 42.009 26.9211 42.009 28.3864 42.009H32.9688C34.4714 42.009 35.9756 42.009 37.4782 42.009C38.8908 42.009 40.3033 42.009 41.7159 42.009H50.9024C51.1895 42.009 51.1911 41.5619 50.9024 41.5619H50.9086Z" fill="#040610" stroke="#040610" stroke-width="0.5"/>
</g>
</g>
<defs>
<clipPath id="clip0_1241_2016">
<rect width="53.6533" height="42.0189" fill="white" transform="translate(0.171875 -0.00976562)"/>
</clipPath>
</defs>
</svg>
