<svg width="46" height="46" viewBox="0 0 46 46" fill="none" xmlns="http://www.w3.org/2000/svg">
<g id="Layer_1">
<g id="Group">
<path id="Vector" d="M21.2783 30.5421L23.762 28.0584L17.9399 22.2363L15.4562 24.72L17.2689 26.5327L14.8443 28.9574L13.8436 27.9567L1.59252 40.2094C0.432701 41.3692 0.432701 43.2476 1.59252 44.4074C2.75234 45.5672 4.63069 45.5672 5.79051 44.4074L18.0433 32.1547L17.0426 31.154L19.4672 28.7293L21.2799 30.5421H21.2783Z" fill="white" stroke="#040610" stroke-width="0.5"/>
<path id="Vector_2" d="M21.4394 30.7048C22.1645 29.9797 22.8896 29.2546 23.613 28.5312C23.7164 28.4278 23.8197 28.3245 23.9231 28.2211C24.0117 28.1325 24.0117 27.9833 23.9231 27.8947C23.2652 27.2368 22.609 26.5807 21.9512 25.9228C20.9095 24.8811 19.8662 23.8378 18.8245 22.7961C18.5833 22.5549 18.3422 22.3138 18.1026 22.0743C18.0141 21.9857 17.8648 21.9857 17.7762 22.0743C17.0511 22.7993 16.326 23.5244 15.6026 24.2479C15.4992 24.3512 15.3959 24.4546 15.2925 24.5579C15.2039 24.6465 15.2039 24.7958 15.2925 24.8844C15.8962 25.4881 16.5015 26.0934 17.1052 26.6971V26.3707C16.2965 27.1794 15.4894 27.9865 14.6806 28.7953H15.0071C14.674 28.4623 14.3394 28.1276 14.0064 27.7946C13.9178 27.706 13.7685 27.706 13.6799 27.7946C13.1632 28.3114 12.6481 28.8265 12.1313 29.3432C10.942 30.5326 9.7526 31.7219 8.56326 32.9113C7.24103 34.2335 5.91716 35.5574 4.59493 36.8796C3.67955 37.795 2.76416 38.7104 1.84713 39.6274C1.70605 39.7685 1.56497 39.9063 1.42553 40.049C0.452724 41.0366 0.213214 42.5573 0.85136 43.7909C1.48951 45.0246 2.87243 45.6808 4.22419 45.4626C4.946 45.3461 5.55298 44.9671 6.06152 44.4586C6.80138 43.7187 7.5396 42.9805 8.27945 42.2407C9.5541 40.966 10.8288 39.6914 12.1034 38.4167C13.3781 37.1421 14.6445 35.8756 15.9159 34.6042C16.6443 33.8759 17.371 33.1491 18.0994 32.4208C18.1338 32.3863 18.1666 32.3535 18.2011 32.319C18.2897 32.2305 18.2897 32.0812 18.2011 31.9926C17.8681 31.6596 17.5334 31.3249 17.2004 30.9919V31.3184C18.0091 30.5096 18.8163 29.7025 19.625 28.8937H19.2986C19.9023 29.4974 20.5076 30.1028 21.1113 30.7065C21.3213 30.9164 21.6477 30.59 21.4377 30.38C20.834 29.7763 20.2287 29.171 19.625 28.5673C19.5364 28.4787 19.3871 28.4787 19.2986 28.5673C18.4898 29.376 17.6827 30.1831 16.8739 30.9919C16.7853 31.0805 16.7853 31.2298 16.8739 31.3184C17.2069 31.6514 17.5416 31.986 17.8746 32.319V31.9926C17.371 32.4962 16.869 32.9982 16.3654 33.5018C15.2105 34.6567 14.0556 35.8116 12.9007 36.9665C11.5899 38.2773 10.2808 39.5864 8.97009 40.8971C8.03174 41.8355 7.09503 42.7722 6.15667 43.7105C5.98114 43.8861 5.80725 44.0632 5.63008 44.2371C4.81476 45.041 3.55815 45.2903 2.51317 44.7883C1.29921 44.2043 0.674188 42.8017 1.06462 41.5107C1.22375 40.9824 1.5502 40.5723 1.9308 40.1917C2.71002 39.4125 3.48925 38.6333 4.26684 37.8557C5.52673 36.5958 6.78662 35.3359 8.0465 34.076C9.29163 32.8309 10.5368 31.5858 11.7835 30.339C12.4889 29.6336 13.1927 28.9298 13.8981 28.2244C13.9325 28.19 13.9654 28.1572 13.9998 28.1227H13.6733C14.0064 28.4557 14.341 28.7904 14.674 29.1234C14.7626 29.212 14.9119 29.212 15.0005 29.1234C15.8093 28.3146 16.6164 27.5075 17.4251 26.6988C17.5137 26.6102 17.5137 26.4609 17.4251 26.3723C16.8214 25.7686 16.2161 25.1633 15.6124 24.5596V24.886C16.3375 24.1609 17.0626 23.4359 17.786 22.7124C17.8894 22.609 17.9927 22.5057 18.0961 22.4023H17.7696C18.4275 23.0602 19.0837 23.7164 19.7415 24.3742C20.7832 25.4159 21.8265 26.4593 22.8682 27.501C23.1094 27.7421 23.3505 27.9833 23.59 28.2228V27.8963C22.865 28.6214 22.1399 29.3465 21.4164 30.07C21.3131 30.1733 21.2097 30.2767 21.1064 30.38C20.8964 30.59 21.2228 30.9164 21.4328 30.7065L21.4394 30.7048Z" fill="#040610" stroke="#040610" stroke-width="0.5"/>
</g>
<g id="Group_2">
<path id="Vector_3" d="M40.9502 5.04907C35.1856 -0.715575 25.8381 -0.715575 20.0735 5.04907C14.3088 10.8137 14.3088 20.1612 20.0735 25.9258C25.8381 31.6905 35.1856 31.6905 40.9502 25.9258C46.7149 20.1612 46.7149 10.8137 40.9502 5.04907ZM23.5775 22.4218C19.7487 18.5929 19.7487 12.3837 23.5775 8.55478C27.4064 4.7259 33.6156 4.7259 37.4445 8.55478C41.2734 12.3837 41.2734 18.5929 37.4445 22.4218C33.6156 26.2506 27.4064 26.2506 23.5775 22.4218Z" fill="white" stroke="#040610" stroke-width="0.5"/>
<g id="Group_3">
<path id="Vector_4" d="M41.1116 4.88688C38.9166 2.70176 36.0736 1.21713 33.0158 0.706941C29.9579 0.196751 26.9296 0.619995 24.1818 1.89465C21.3405 3.21359 18.9405 5.44957 17.4148 8.18261C15.9384 10.8254 15.2953 13.9112 15.589 16.9247C15.8826 19.9383 17.1277 22.9108 19.1324 25.2502C21.1568 27.6108 23.9062 29.3087 26.9263 30.0486C29.8447 30.7638 32.9682 30.5866 35.7833 29.5285C38.7361 28.4179 41.2937 26.3722 43.0342 23.7409C44.7059 21.2129 45.572 18.1797 45.5015 15.1514C45.4309 12.123 44.4286 9.1144 42.6306 6.66024C42.1697 6.03194 41.6644 5.43972 41.1148 4.88852C40.9049 4.67854 40.58 5.00336 40.7884 5.21498C42.9161 7.35088 44.3433 10.1052 44.8453 13.0794C45.3473 16.0536 44.929 18.9704 43.697 21.6116C42.4092 24.3758 40.2487 26.7003 37.5862 28.1883C35.0172 29.622 32.0315 30.2339 29.1049 29.9551C26.1602 29.6745 23.3238 28.4704 21.078 26.5445C18.8322 24.6186 17.1195 21.9036 16.3977 18.954C15.6759 16.0044 15.8859 13.1024 16.9079 10.3694C17.9299 7.63633 19.9609 5.04273 22.4938 3.3678C25.0267 1.69287 27.8975 0.895596 30.8504 0.962855C33.8049 1.03012 36.6987 2.01112 39.0856 3.75331C39.6909 4.1946 40.2569 4.68674 40.7867 5.21498C40.9967 5.42496 41.3232 5.0985 41.1132 4.88852L41.1116 4.88688Z" fill="#040610" stroke="#040610" stroke-width="0.5"/>
<g id="Vector_5">
<path d="M23.7399 22.2593C22.3406 20.8501 21.4022 19.044 21.0676 17.0836C20.7329 15.1232 21.0102 13.194 21.8222 11.4535C22.6703 9.63746 24.0861 8.10853 25.8348 7.12917C27.5245 6.18261 29.4849 5.77741 31.4125 5.95458C33.3613 6.1334 35.2446 6.93067 36.7293 8.20532C38.2451 9.50786 39.3327 11.2583 39.8101 13.2006C40.2875 15.1429 40.148 17.0606 39.4754 18.8652C38.8028 20.6697 37.4707 22.3659 35.8089 23.4683C34.1471 24.5707 32.2589 25.1023 30.3133 25.0629C28.3628 25.0235 26.4533 24.3805 24.8751 23.2338C24.4716 22.9401 24.0943 22.612 23.7399 22.2593C23.53 22.0493 23.2035 22.3758 23.4135 22.5858C24.8801 24.0442 26.7765 25.0399 28.8189 25.3811C30.8613 25.7224 32.8823 25.4451 34.7246 24.5986C36.5668 23.7521 38.2565 22.2117 39.2818 20.3711C40.3071 18.5305 40.6976 16.5422 40.5007 14.531C40.3039 12.5198 39.4771 10.5332 38.1401 8.96814C36.7883 7.38508 34.9444 6.24167 32.9217 5.7446C30.9662 5.26394 28.8714 5.38042 26.9848 6.0891C25.008 6.83388 23.3003 8.19876 22.1323 9.95735C20.9642 11.7159 20.4294 13.6845 20.4754 15.7138C20.5213 17.7431 21.1939 19.7609 22.4013 21.4046C22.7081 21.8229 23.046 22.2167 23.4118 22.5858C23.6218 22.7957 23.9466 22.4709 23.7383 22.2593H23.7399Z" fill="#040610"/>
<path d="M23.7399 22.2593C22.3406 20.8501 21.4022 19.044 21.0676 17.0836C20.7329 15.1232 21.0102 13.194 21.8222 11.4535C22.6703 9.63746 24.0861 8.10853 25.8348 7.12917C27.5245 6.18261 29.4849 5.77741 31.4125 5.95458C33.3613 6.1334 35.2446 6.93067 36.7293 8.20532C38.2451 9.50786 39.3327 11.2583 39.8101 13.2006C40.2875 15.1429 40.148 17.0606 39.4754 18.8652C38.8028 20.6697 37.4707 22.3659 35.8089 23.4683C34.1471 24.5707 32.2589 25.1023 30.3133 25.0629C28.3628 25.0235 26.4533 24.3805 24.8751 23.2338C24.4716 22.9401 24.0943 22.612 23.7399 22.2593ZM23.7399 22.2593C23.53 22.0493 23.2035 22.3758 23.4135 22.5858C24.8801 24.0442 26.7765 25.0399 28.8189 25.3811C30.8613 25.7224 32.8823 25.4451 34.7246 24.5986C36.5668 23.7521 38.2565 22.2117 39.2818 20.3711C40.3071 18.5305 40.6976 16.5422 40.5007 14.531C40.3039 12.5198 39.4771 10.5332 38.1401 8.96814C36.7883 7.38508 34.9444 6.24167 32.9217 5.7446C30.9662 5.26394 28.8714 5.38042 26.9848 6.0891C25.008 6.83388 23.3003 8.19876 22.1323 9.95735C20.9642 11.7159 20.4294 13.6845 20.4754 15.7138C20.5213 17.7431 21.1939 19.7609 22.4013 21.4046C22.7081 21.8229 23.046 22.2167 23.4118 22.5858C23.6218 22.7957 23.9466 22.4709 23.7383 22.2593H23.7399Z" stroke="#040610" stroke-width="0.5"/>
</g>
</g>
</g>
</g>
</svg>
