<svg width="46" height="47" viewBox="0 0 46 47" fill="none" xmlns="http://www.w3.org/2000/svg">
<g id="Layer_1">
<g id="Group">
<path id="Vector" d="M28.3538 28.2755L44.3566 6.74023H1.61328L17.6161 28.2755V44.5278C17.6064 44.5537 17.5999 44.5796 17.5999 44.6056C17.5999 45.077 20.8513 45.7769 22.9849 45.7769C25.1185 45.7769 28.37 45.077 28.37 44.6056C28.37 44.5796 28.3635 44.5537 28.3538 44.5278V28.2755Z" fill="white"/>
<path id="Vector_2" d="M28.5483 28.3899C29.0797 27.6755 29.611 26.9611 30.1408 26.2466C31.4158 24.531 32.6907 22.8154 33.9657 21.0981C35.508 19.0228 37.0503 16.9476 38.5926 14.8723C39.9243 13.0789 41.2575 11.2871 42.5892 9.49374C43.0283 8.90404 43.4657 8.31434 43.9047 7.72465C44.1088 7.44924 44.334 7.18031 44.5236 6.89194C44.5317 6.87898 44.543 6.86602 44.5511 6.85468C44.658 6.71212 44.5122 6.51285 44.3551 6.51285H3.34686C2.79281 6.51285 2.23875 6.50151 1.6847 6.51285C1.6604 6.51285 1.6361 6.51285 1.61179 6.51285C1.45303 6.51285 1.30885 6.71212 1.41577 6.85468C1.63124 7.14467 1.8467 7.43466 2.06217 7.72465C2.62918 8.48931 3.19782 9.25235 3.76484 10.017C4.57648 11.1089 5.38812 12.2025 6.19976 13.2944C7.13615 14.5548 8.07254 15.8152 9.00892 17.0755C9.94531 18.3359 10.9206 19.6498 11.878 20.9361C12.7366 22.0912 13.5953 23.2479 14.4539 24.403C15.0987 25.2714 15.7451 26.1397 16.3898 27.0097C16.7155 27.4471 17.0395 27.8845 17.3651 28.3219C17.3716 28.3316 17.404 28.3899 17.417 28.3916C17.3829 28.3867 17.4024 28.2296 17.3862 28.2992C17.3797 28.3235 17.3862 28.3559 17.3862 28.3802V44.3782C17.3862 44.4268 17.391 44.4786 17.3862 44.5272C17.3619 44.7816 17.5028 44.9258 17.7215 45.0473C18.0536 45.2336 18.4376 45.3405 18.8037 45.4393C19.327 45.5786 19.86 45.6839 20.3946 45.7714C21.5173 45.9529 22.6529 46.0533 23.7902 45.9788C24.9145 45.9043 26.0486 45.7358 27.1388 45.4458C27.5098 45.347 27.8954 45.24 28.234 45.0554C28.4576 44.9338 28.605 44.788 28.5807 44.5288C28.5645 44.3604 28.5807 44.1838 28.5807 44.0137V28.2782C28.5807 27.9849 28.1255 27.9849 28.1255 28.2782V29.9355C28.1255 31.2509 28.1255 32.5648 28.1255 33.8803C28.1255 35.1958 28.1255 37.0539 28.1255 38.6416V43.9732C28.1255 44.1497 28.0995 44.349 28.1255 44.524C28.1255 44.5256 28.1255 44.5288 28.1255 44.5305C28.14 44.6277 28.1303 44.5726 28.1433 44.5839C28.1238 44.5661 28.187 44.5467 28.153 44.5596C28.1044 44.5791 28.119 44.5953 28.0623 44.6293C28.0056 44.6633 27.944 44.6957 27.8825 44.7232C27.5131 44.8917 27.1064 44.9905 26.7144 45.0845C25.6144 45.347 24.4804 45.509 23.3496 45.5462C22.222 45.5835 21.0847 45.449 19.9783 45.2384C19.4939 45.1461 19.0095 45.0375 18.538 44.8885C18.3695 44.835 18.2011 44.7799 18.0423 44.7022C17.9888 44.6763 17.9338 44.6487 17.8835 44.6147C17.8625 44.6017 17.8155 44.558 17.8106 44.5564C17.8187 44.5596 17.8155 44.5726 17.8203 44.571C17.8317 44.5661 17.8349 44.5904 17.8414 44.5288C17.8414 44.5256 17.8414 44.5224 17.8414 44.5175C17.8447 44.4981 17.8414 44.4754 17.8414 44.4543C17.8414 44.3571 17.8414 44.2599 17.8414 44.1627V43.0303C17.8414 41.7375 17.8414 40.4431 17.8414 39.1503V30.287C17.8414 29.6277 17.8738 28.9602 17.8414 28.3025C17.8349 28.1842 17.7863 28.1291 17.7199 28.0416L17.3262 27.5119C16.8046 26.8104 16.2829 26.1073 15.7613 25.4058C14.9885 24.3674 14.2174 23.3273 13.4446 22.2889C12.526 21.0511 11.6059 19.815 10.6873 18.5773C9.73794 17.3007 8.7886 16.0225 7.84087 14.7459C6.96443 13.5665 6.08636 12.3855 5.20992 11.2061C4.52302 10.2811 3.8345 9.35441 3.1476 8.42937C2.75393 7.89799 2.35864 7.36824 1.96496 6.83686C1.91312 6.7672 1.86128 6.69754 1.81106 6.6295L1.61503 6.97133H42.6232C43.1724 6.97133 43.7378 7.00859 44.2854 6.97133C44.3097 6.96971 44.334 6.97133 44.3583 6.97133L44.1623 6.6295C43.6309 7.34394 43.0995 8.05838 42.5698 8.77282C41.2948 10.4884 40.0198 12.2041 38.7449 13.9213C37.2026 15.9966 35.6603 18.0719 34.118 20.1472C32.7863 21.9405 31.453 23.7323 30.1214 25.5257C29.6823 26.1154 29.2449 26.7051 28.8059 27.2948C28.6018 27.5702 28.3766 27.8391 28.187 28.1275C28.1789 28.1405 28.1676 28.1534 28.1595 28.1648C27.9845 28.3997 28.3798 28.6265 28.5532 28.3948L28.5483 28.3899Z" fill="#040610" stroke="#040610" stroke-width="0.5"/>
</g>
<g id="Group_2">
<path id="Vector_3" d="M23 10.7894C34.9411 10.7894 44.6212 8.65044 44.6212 6.01189C44.6212 3.37334 34.9411 1.23438 23 1.23438C11.059 1.23438 1.37891 3.37334 1.37891 6.01189C1.37891 8.65044 11.059 10.7894 23 10.7894Z" fill="white"/>
<path id="Vector_4" d="M44.3918 6.01244C44.3918 6.13881 44.3805 6.20361 44.3238 6.35751C44.3157 6.37695 44.3254 6.35913 44.2995 6.41259C44.2865 6.44014 44.272 6.46768 44.2574 6.4936C44.2201 6.5584 44.1796 6.62158 44.1343 6.68152C43.9609 6.91157 43.6515 7.1643 43.3777 7.3425C42.485 7.92734 41.4498 8.29185 40.4341 8.59966C37.1681 9.59274 33.7157 10.0107 30.3234 10.2813C25.9492 10.6296 21.5411 10.6571 17.1621 10.3866C13.5802 10.1646 9.95777 9.77743 6.47953 8.85886C5.34874 8.56077 4.20823 8.20922 3.16978 7.66327C2.81661 7.47696 2.4683 7.26636 2.17345 7.00391C2.06167 6.90509 1.91425 6.74794 1.85268 6.6637C1.81056 6.607 1.77168 6.54706 1.73766 6.48388C1.69878 6.41421 1.68096 6.37047 1.66962 6.33807C1.58214 6.08697 1.58214 5.91848 1.6761 5.66575C1.6761 5.66575 1.71822 5.57179 1.74738 5.52157C1.7652 5.49079 1.78302 5.46163 1.80246 5.43247C1.81542 5.41141 1.8705 5.33688 1.85754 5.35308C1.95637 5.2251 2.07301 5.11008 2.19289 5.00315C2.88789 4.3924 3.82266 4.01817 4.68938 3.71036C6.0324 3.23245 7.42888 2.9052 8.82698 2.63465C10.6042 2.2912 12.4008 2.05143 14.2023 1.87323C18.5392 1.44553 22.9149 1.36129 27.268 1.55408C31.0216 1.71932 34.806 2.07087 38.4738 2.90844C39.7245 3.19356 40.9849 3.53215 42.1643 4.04409C42.8658 4.34866 43.713 4.76339 44.1472 5.36119C44.1893 5.41789 44.2282 5.47783 44.2622 5.54101C44.2995 5.60743 44.3206 5.65603 44.3303 5.68681C44.3837 5.83748 44.3918 5.88446 44.3918 6.01406C44.3951 6.30729 44.8503 6.30729 44.8471 6.01406C44.8406 5.30286 44.2849 4.76501 43.7422 4.38268C42.8593 3.7622 41.803 3.37987 40.7808 3.05748C39.3065 2.59253 37.7869 2.27176 36.2641 2.01093C34.3589 1.6853 32.4343 1.46174 30.508 1.30459C26.0205 0.936841 21.4974 0.9093 17.005 1.19443C13.3615 1.42609 9.66454 1.82463 6.13284 2.78855C4.98261 3.10284 3.8178 3.47707 2.77287 4.06029C2.15077 4.40536 1.45091 4.88651 1.21601 5.60095C1.00864 6.23439 1.33589 6.84515 1.79274 7.27446C2.49422 7.93382 3.43223 8.33235 4.32163 8.66446C5.66465 9.16505 7.06761 9.50364 8.47057 9.78391C10.2802 10.1452 12.1124 10.3947 13.9479 10.581C18.4063 11.0362 22.9084 11.1237 27.3846 10.9196C31.2095 10.7446 35.0733 10.3817 38.8092 9.50526C40.0825 9.20555 41.3559 8.84428 42.5515 8.30319C43.2951 7.96622 44.1083 7.53367 44.5765 6.84029C44.7418 6.59566 44.8438 6.30891 44.8471 6.01244C44.8503 5.71597 44.3951 5.71921 44.3918 6.01244Z" fill="#040610" stroke="#040610" stroke-width="0.5"/>
</g>
</g>
</svg>
